# xmcd
#
# Track frame offsets: 
#        150
#        16636
#        31971
#        43802
#        62438
#        78677
#        92221
#        107685
#        126313
#        140852
#        158574
#        176290
#
# Disc length: 2496 seconds
#
# Revision: 0
# Processed by: cddbd v1.5.2PL0 Copyright (c) Steve Scherf et al.
# Submitted via: ExactAudioCopyFreeDBPlugin 1.0
#
DISCID=9709be0c
DTITLE=Maria Peszek - Jezus Maria Peszek
DYEAR=2012
DGENRE=Avantgarde
TTITLE0=Ludzie Psy
TTITLE1=Nie Ogarniam
TTITLE2=Wysscigowka
TTITLE3=Amy
TTITLE4=Zwir
TTITLE5=Sorry Polsko
TTITLE6=Pan Nie Jest Moim Pasterzem
TTITLE7=Pibloktoq
TTITLE8=Padam
TTITLE9=Nie Wiem Czy Chce
TTITLE10=Szara Flaga
TTITLE11=Zejscie Awaryjne
EXTD=
EXTT0=
EXTT1=
EXTT2=
EXTT3=
EXTT4=
EXTT5=
EXTT6=
EXTT7=
EXTT8=
EXTT9=
EXTT10=
EXTT11=
PLAYORDER=
